<svg xmlns="http://www.w3.org/2000/svg" width="120" height="120" viewBox="0 0 120 120">
  <g id="Grupo_99" data-name="Grupo 99" transform="translate(-12335 -350)">
    <circle id="Elipse_13" data-name="Elipse 13" cx="60" cy="60" r="60" transform="translate(12335 350)" fill="#65cf72"/>
    <path id="whatsapp" d="M54.079,44.59c-.922-.461-5.451-2.687-6.294-3s-1.459-.459-2.077.465-2.379,2.995-2.914,3.609-1.075.692-2,.231a25.307,25.307,0,0,1-7.41-4.574,27.616,27.616,0,0,1-5.124-6.385c-.535-.922-.056-1.42.4-1.879.415-.413.924-1.075,1.383-1.612a6.375,6.375,0,0,0,.924-1.542,1.682,1.682,0,0,0-.079-1.612c-.231-.461-2.075-5-2.84-6.842-.75-1.794-1.509-1.55-2.075-1.581q-.883-.035-1.767-.031a3.375,3.375,0,0,0-2.456,1.153,10.335,10.335,0,0,0-3.224,7.687c0,4.533,3.3,8.915,3.762,9.531s6.5,9.921,15.74,13.913a52.041,52.041,0,0,0,5.252,1.939,12.564,12.564,0,0,0,5.8.366c1.769-.265,5.451-2.23,6.219-4.38a7.647,7.647,0,0,0,.535-4.38c-.229-.384-.843-.614-1.767-1.075M37.264,67.546h-.012a30.6,30.6,0,0,1-15.6-4.273l-1.117-.663-11.6,3.045,3.094-11.31-.728-1.16A30.647,30.647,0,1,1,37.264,67.546M63.349,10.816A36.878,36.878,0,0,0,5.317,55.3L.086,74.41l19.547-5.128a36.839,36.839,0,0,0,17.619,4.489h.014A36.89,36.89,0,0,0,63.351,10.812Z" transform="translate(12357.887 374)" fill="#fff"/>
  </g>
</svg>
